<svg width="60" height="51" viewBox="0 0 60 51" fill="none" xmlns="http://www.w3.org/2000/svg">
<path d="M28.8614 0.478185C28.4064 0.72584 27.2975 1.36267 26.4444 1.8226C25.5914 2.28253 24.3118 3.02549 23.6009 3.41466C19.7054 5.60817 18.4258 6.31576 18.3405 6.31576C18.2836 6.31576 17.26 6.88183 16.0088 7.58941C13.3644 9.07534 12.5113 9.57065 10.8053 10.4905C10.0944 10.8797 8.75794 11.6226 7.81959 12.1533C6.88124 12.6486 5.74384 13.2855 5.26045 13.5685C4.80549 13.8162 3.69653 14.4176 2.84349 14.9129C1.99044 15.4082 0.99522 15.9035 0.654002 16.045C0.284349 16.1512 0 16.3988 0 16.5757C0 16.8588 1.36487 17.7079 3.98088 19.123C4.69175 19.5122 5.6301 20.0429 6.1135 20.2906C8.27455 21.4935 12.9379 24.0761 14.0753 24.713C14.388 24.8899 15.6392 25.5974 16.8619 26.2696C18.113 26.9772 19.1367 27.5433 19.1935 27.5433C19.2788 27.5433 20.5584 28.2509 24.5962 30.5505C25.3923 30.9751 26.6719 31.6827 27.4397 32.1072C28.2358 32.5318 29.0889 33.0271 29.3732 33.2394C29.7713 33.5224 30.1978 33.4516 30.9371 33.0271C32.2167 32.3195 32.7001 32.0718 34.5484 31.0458C35.3445 30.6213 36.6241 29.9137 37.3919 29.4892C38.188 29.0292 39.4676 28.3216 40.2353 27.8971C41.0315 27.5079 41.913 27.0126 42.2258 26.8357C42.5386 26.6942 43.6191 26.0574 44.6427 25.4913C45.6664 24.8899 47.145 24.0761 47.9128 23.6516C49.8463 22.6256 50.6994 22.1303 53.031 20.8566C54.14 20.2198 55.2774 19.583 55.5902 19.4061C60.3104 16.8234 60.6231 16.505 59.372 16.0097C58.7749 15.7974 57.7797 15.2313 53.5997 12.8609C52.832 12.4364 51.5524 11.7288 50.7562 11.3042C49.107 10.3844 48.8227 10.2429 46.3488 8.86306C45.3252 8.297 43.875 7.48327 43.0788 7.05872C41.4296 6.13886 41.1737 5.99735 38.5292 4.51142C35.9132 3.06087 35.1171 2.63632 33.411 1.71646C32.6432 1.32729 31.648 0.761219 31.2215 0.478185C30.3116 -0.158641 29.9419 -0.158641 28.8614 0.478185Z" fill="black"/>
<path d="M46.6323 29.5602C46.4048 29.6663 45.438 30.197 44.4997 30.7277C43.5613 31.2584 42.3386 31.966 41.7984 32.249C39.0686 33.7349 36.0829 35.4331 33.1257 37.1313C30.5666 38.6173 29.4292 38.6173 26.8701 37.1313C25.7895 36.4945 24.4247 35.7516 23.8844 35.4331C23.3441 35.1501 22.5195 34.6902 22.0361 34.4425C21.0125 33.8411 18.5671 32.4967 16.6335 31.4353C15.8658 31.0107 14.8421 30.48 14.3871 30.197C13.9322 29.9494 13.3919 29.8078 13.2213 29.914C13.0223 29.9847 12.7095 31.3645 12.5389 32.9566C11.4584 42.1906 11.4584 42.8628 12.7664 42.5444C13.9322 42.2613 18.1121 43.5704 20.9556 45.0917C21.439 45.3747 21.9224 45.587 22.0077 45.587C22.3489 45.587 26.017 47.8866 26.3867 48.3112C26.5857 48.5588 26.8701 48.7711 27.0122 48.7711C27.1544 48.7711 27.8368 49.2664 28.5477 49.8679L29.7988 51L31.7608 49.3726C33.666 47.8159 37.1066 45.587 37.6184 45.587C37.7606 45.587 38.2724 45.3747 38.7558 45.0917C40.661 44.0303 44.13 43.1812 46.547 43.1458C47.9119 43.1104 48.054 43.0397 48.2246 42.1552C48.4806 40.9877 47.5706 29.9494 47.201 29.5602C47.1157 29.4894 46.8598 29.4894 46.6323 29.5602Z" fill="black"/>
</svg>
