<svg width="134" height="91" viewBox="0 0 134 91" fill="none" xmlns="http://www.w3.org/2000/svg">
<path d="M64.0732 0.852341C63.0632 1.29422 60.6013 2.4305 58.7075 3.25114C56.8137 4.07178 53.973 5.39744 52.3949 6.09183C43.7466 10.0057 40.9059 11.2682 40.7165 11.2682C40.5902 11.2682 38.3177 12.2782 35.5401 13.5407C29.6694 16.192 27.7756 17.0758 23.988 18.7171C22.4099 19.4115 19.4429 20.7371 17.3597 21.684C15.2766 22.5678 12.7515 23.7041 11.6784 24.2091C10.6684 24.651 8.20643 25.7241 6.31263 26.6079C4.41884 27.4917 2.20942 28.3754 1.45191 28.6279C0.631263 28.8173 0 29.2592 0 29.5748C0 30.0798 3.03006 31.5949 8.83769 34.1199C10.4158 34.8143 12.499 35.7612 13.5722 36.2031C18.3698 38.3494 28.7225 42.9576 31.2475 44.0939C31.9419 44.4095 34.7195 45.6721 37.4339 46.8715C40.2115 48.134 42.484 49.144 42.6103 49.144C42.7997 49.144 45.6404 50.4065 54.6043 54.5097C56.3718 55.2673 59.2125 56.5298 60.9169 57.2873C62.6845 58.0448 64.5783 58.9286 65.2095 59.3073C66.0933 59.8124 67.0402 59.6861 68.6815 58.9286C71.5222 57.6661 72.5953 57.2242 76.6985 55.3935C78.466 54.636 81.3067 53.3735 83.0111 52.616C84.7787 51.7953 87.6194 50.5328 89.3238 49.7753C91.0913 49.0809 93.0482 48.1971 93.7426 47.8815C94.437 47.629 96.8358 46.4927 99.1084 45.4827C101.381 44.4095 104.663 42.9576 106.368 42.2001C110.66 40.3694 112.554 39.4857 117.731 37.2131C120.193 36.0768 122.718 34.9406 123.412 34.6249C133.891 30.0167 134.585 29.4486 131.808 28.5648C130.482 28.1861 128.273 27.176 118.993 22.9466C117.289 22.189 114.448 20.9265 112.681 20.169C109.019 18.5277 108.388 18.2752 102.896 15.8133C100.623 14.8033 97.404 13.3514 95.6364 12.5938C91.9751 10.9526 91.407 10.7001 85.5362 8.04874C79.7286 5.46056 77.961 4.70305 74.1735 3.06176C72.469 2.36737 70.2596 1.35735 69.3127 0.852341C67.2927 -0.283936 66.472 -0.283936 64.0732 0.852341Z" fill="white"/>
<path d="M103.527 52.7435C103.022 52.9329 100.875 53.8798 98.7922 54.8266C96.709 55.7735 93.9946 57.0361 92.7952 57.5411C86.735 60.1924 80.1068 63.2225 73.5416 66.2525C67.8603 68.9038 65.3352 68.9038 59.6538 66.2525C57.255 65.1162 54.225 63.7906 53.0256 63.2225C51.8262 62.7174 49.9955 61.8968 48.9223 61.4549C46.6498 60.3818 41.2209 57.983 36.9283 56.0892C35.2239 55.3317 32.9514 54.3848 31.9414 53.8798C30.9313 53.4379 29.7319 53.1854 29.3532 53.3747C28.9113 53.501 28.2169 55.9629 27.8381 58.8036C25.4393 75.2796 25.4393 76.479 28.3432 75.9108C30.9313 75.4058 40.2109 77.7415 46.5235 80.4559C47.5967 80.961 48.6698 81.3397 48.8592 81.3397C49.6167 81.3397 57.76 85.4429 58.5807 86.2004C59.0226 86.6423 59.6538 87.0211 59.9695 87.0211C60.2851 87.0211 61.8001 87.9049 63.3783 88.978L66.1558 90.998L70.5116 88.0942C74.741 85.3167 82.3793 81.3397 83.5156 81.3397C83.8312 81.3397 84.9675 80.961 86.0406 80.4559C90.2701 78.5622 97.9715 77.0471 103.337 76.984C106.367 76.9209 106.683 76.7946 107.062 75.2165C107.63 73.1333 105.61 53.4379 104.789 52.7435C104.6 52.6172 104.032 52.6172 103.527 52.7435Z" fill="white"/>
</svg>
